<?xml version="1.0" encoding="UTF-8" standalone="no"?>
<svg width="64" height="64" viewBox="-32 -32 64 64" xmlns="http://www.w3.org/2000/svg" style="transform-origin: center center;">
	<style>
	#sun-icon rect, #sun-icon circle { fill: #eebd14; }
	</style>
	<g id="sun-icon">
		<rect width="4" height="10" x="-2" y="20" rx="2" transform="rotate(0)"></rect>
		<rect width="4" height="10" x="-2" y="20" rx="2" transform="rotate(30)"></rect>
		<rect width="4" height="10" x="-2" y="20" rx="2" transform="rotate(60)"></rect>
		<rect width="4" height="10" x="-2" y="20" rx="2" transform="rotate(90)"></rect>
		<rect width="4" height="10" x="-2" y="20" rx="2" transform="rotate(120)"></rect>
		<rect width="4" height="10" x="-2" y="20" rx="2" transform="rotate(150)"></rect>
		<rect width="4" height="10" x="-2" y="20" rx="2" transform="rotate(180)"></rect>
		<rect width="4" height="10" x="-2" y="20" rx="2" transform="rotate(210)"></rect>
		<rect width="4" height="10" x="-2" y="20" rx="2" transform="rotate(240)"></rect>
		<rect width="4" height="10" x="-2" y="20" rx="2" transform="rotate(270)"></rect>
		<rect width="4" height="10" x="-2" y="20" rx="2" transform="rotate(300)"></rect>
		<rect width="4" height="10" x="-2" y="20" rx="2" transform="rotate(330)"></rect>
		<circle cx="0" cy="0" r="16"></circle>
	</g>
</svg>
